<mxfile host="app.diagrams.net" agent="Mozilla/5.0 (Macintosh; Intel Mac OS X 10_15_7) AppleWebKit/537.36 (KHTML, like Gecko) Chrome/140.0.0.0 Safari/537.36" version="28.2.3">
  <diagram name="Page-1" id="ZM6XDS3sFtPIBbnZMu7q">
    <mxGraphModel dx="1220" dy="679" grid="1" gridSize="10" guides="1" tooltips="1" connect="1" arrows="1" fold="1" page="1" pageScale="1" pageWidth="1100" pageHeight="850" math="0" shadow="0">
      <root>
        <mxCell id="0" />
        <mxCell id="1" parent="0" />
        <mxCell id="18Uwbp1LqqcsZQMBWah2-3" value="Vendéglátás" style="ellipse;whiteSpace=wrap;html=1;" vertex="1" parent="1">
          <mxGeometry x="430" width="220" height="130" as="geometry" />
        </mxCell>
        <mxCell id="18Uwbp1LqqcsZQMBWah2-5" value="Szakács" style="ellipse;whiteSpace=wrap;html=1;" vertex="1" parent="1">
          <mxGeometry x="1150" y="60" width="120" height="80" as="geometry" />
        </mxCell>
        <mxCell id="18Uwbp1LqqcsZQMBWah2-6" value="Étterem" style="ellipse;whiteSpace=wrap;html=1;" vertex="1" parent="1">
          <mxGeometry x="300" y="200" width="120" height="80" as="geometry" />
        </mxCell>
        <mxCell id="18Uwbp1LqqcsZQMBWah2-7" value="Vendég" style="ellipse;whiteSpace=wrap;html=1;" vertex="1" parent="1">
          <mxGeometry x="1220" y="170" width="120" height="80" as="geometry" />
        </mxCell>
        <mxCell id="18Uwbp1LqqcsZQMBWah2-8" value="Rendelés" style="ellipse;whiteSpace=wrap;html=1;" vertex="1" parent="1">
          <mxGeometry x="1430" y="190" width="120" height="80" as="geometry" />
        </mxCell>
        <mxCell id="18Uwbp1LqqcsZQMBWah2-9" value="Gyakornok" style="ellipse;whiteSpace=wrap;html=1;" vertex="1" parent="1">
          <mxGeometry x="1580" y="190" width="120" height="80" as="geometry" />
        </mxCell>
        <mxCell id="18Uwbp1LqqcsZQMBWah2-10" value="" style="ellipse;whiteSpace=wrap;html=1;fillColor=none;" vertex="1" parent="1">
          <mxGeometry x="1590" y="200" width="100" height="60" as="geometry" />
        </mxCell>
        <mxCell id="18Uwbp1LqqcsZQMBWah2-11" value="" style="ellipse;whiteSpace=wrap;html=1;fillColor=none;" vertex="1" parent="1">
          <mxGeometry x="1230" y="180" width="100" height="60" as="geometry" />
        </mxCell>
        <mxCell id="18Uwbp1LqqcsZQMBWah2-12" value="" style="ellipse;whiteSpace=wrap;html=1;fillColor=none;" vertex="1" parent="1">
          <mxGeometry x="1440" y="200" width="100" height="60" as="geometry" />
        </mxCell>
        <mxCell id="18Uwbp1LqqcsZQMBWah2-13" value="Ekód" style="rhombus;whiteSpace=wrap;html=1;" vertex="1" parent="1">
          <mxGeometry x="90" y="240" width="80" height="80" as="geometry" />
        </mxCell>
        <mxCell id="18Uwbp1LqqcsZQMBWah2-14" value="Név" style="ellipse;whiteSpace=wrap;html=1;" vertex="1" parent="1">
          <mxGeometry x="120" y="370" width="90" height="60" as="geometry" />
        </mxCell>
        <mxCell id="18Uwbp1LqqcsZQMBWah2-15" value="Cím" style="ellipse;whiteSpace=wrap;html=1;" vertex="1" parent="1">
          <mxGeometry x="315" y="370" width="90" height="60" as="geometry" />
        </mxCell>
        <mxCell id="18Uwbp1LqqcsZQMBWah2-16" value="Csillag" style="ellipse;whiteSpace=wrap;html=1;" vertex="1" parent="1">
          <mxGeometry x="510" y="370" width="90" height="60" as="geometry" />
        </mxCell>
        <mxCell id="18Uwbp1LqqcsZQMBWah2-18" value="Város" style="ellipse;whiteSpace=wrap;html=1;" vertex="1" parent="1">
          <mxGeometry x="205" y="480" width="90" height="60" as="geometry" />
        </mxCell>
        <mxCell id="18Uwbp1LqqcsZQMBWah2-19" value="Utca" style="ellipse;whiteSpace=wrap;html=1;" vertex="1" parent="1">
          <mxGeometry x="315" y="480" width="90" height="60" as="geometry" />
        </mxCell>
        <mxCell id="18Uwbp1LqqcsZQMBWah2-20" value="Házszám" style="ellipse;whiteSpace=wrap;html=1;" vertex="1" parent="1">
          <mxGeometry x="425" y="480" width="90" height="60" as="geometry" />
        </mxCell>
        <mxCell id="18Uwbp1LqqcsZQMBWah2-22" value="" style="endArrow=none;html=1;rounded=0;entryX=0.5;entryY=1;entryDx=0;entryDy=0;exitX=0.5;exitY=0;exitDx=0;exitDy=0;" edge="1" parent="1" source="18Uwbp1LqqcsZQMBWah2-15" target="18Uwbp1LqqcsZQMBWah2-6">
          <mxGeometry width="50" height="50" relative="1" as="geometry">
            <mxPoint x="500" y="320" as="sourcePoint" />
            <mxPoint x="550" y="270" as="targetPoint" />
          </mxGeometry>
        </mxCell>
        <mxCell id="18Uwbp1LqqcsZQMBWah2-23" value="" style="endArrow=none;html=1;rounded=0;exitX=0.5;exitY=0;exitDx=0;exitDy=0;entryX=0.5;entryY=1;entryDx=0;entryDy=0;" edge="1" parent="1" source="18Uwbp1LqqcsZQMBWah2-14" target="18Uwbp1LqqcsZQMBWah2-6">
          <mxGeometry width="50" height="50" relative="1" as="geometry">
            <mxPoint x="500" y="320" as="sourcePoint" />
            <mxPoint x="550" y="270" as="targetPoint" />
          </mxGeometry>
        </mxCell>
        <mxCell id="18Uwbp1LqqcsZQMBWah2-24" value="" style="endArrow=none;html=1;rounded=0;entryX=0.5;entryY=1;entryDx=0;entryDy=0;exitX=0.5;exitY=0;exitDx=0;exitDy=0;" edge="1" parent="1" source="18Uwbp1LqqcsZQMBWah2-16" target="18Uwbp1LqqcsZQMBWah2-6">
          <mxGeometry width="50" height="50" relative="1" as="geometry">
            <mxPoint x="500" y="320" as="sourcePoint" />
            <mxPoint x="550" y="270" as="targetPoint" />
          </mxGeometry>
        </mxCell>
        <mxCell id="18Uwbp1LqqcsZQMBWah2-25" value="" style="endArrow=none;html=1;rounded=0;exitX=0.5;exitY=1;exitDx=0;exitDy=0;entryX=0.5;entryY=0;entryDx=0;entryDy=0;" edge="1" parent="1" source="18Uwbp1LqqcsZQMBWah2-15" target="18Uwbp1LqqcsZQMBWah2-19">
          <mxGeometry width="50" height="50" relative="1" as="geometry">
            <mxPoint x="500" y="320" as="sourcePoint" />
            <mxPoint x="550" y="270" as="targetPoint" />
          </mxGeometry>
        </mxCell>
        <mxCell id="18Uwbp1LqqcsZQMBWah2-26" value="" style="endArrow=none;html=1;rounded=0;exitX=0.5;exitY=1;exitDx=0;exitDy=0;entryX=0.5;entryY=0;entryDx=0;entryDy=0;" edge="1" parent="1" source="18Uwbp1LqqcsZQMBWah2-15" target="18Uwbp1LqqcsZQMBWah2-18">
          <mxGeometry width="50" height="50" relative="1" as="geometry">
            <mxPoint x="500" y="320" as="sourcePoint" />
            <mxPoint x="550" y="270" as="targetPoint" />
          </mxGeometry>
        </mxCell>
        <mxCell id="18Uwbp1LqqcsZQMBWah2-27" value="" style="endArrow=none;html=1;rounded=0;exitX=0.5;exitY=0;exitDx=0;exitDy=0;entryX=0.5;entryY=1;entryDx=0;entryDy=0;" edge="1" parent="1" source="18Uwbp1LqqcsZQMBWah2-20" target="18Uwbp1LqqcsZQMBWah2-15">
          <mxGeometry width="50" height="50" relative="1" as="geometry">
            <mxPoint x="500" y="320" as="sourcePoint" />
            <mxPoint x="550" y="270" as="targetPoint" />
          </mxGeometry>
        </mxCell>
        <mxCell id="18Uwbp1LqqcsZQMBWah2-28" value="" style="endArrow=none;html=1;rounded=0;exitX=1;exitY=0.5;exitDx=0;exitDy=0;entryX=0;entryY=0.5;entryDx=0;entryDy=0;" edge="1" parent="1" source="18Uwbp1LqqcsZQMBWah2-13" target="18Uwbp1LqqcsZQMBWah2-6">
          <mxGeometry width="50" height="50" relative="1" as="geometry">
            <mxPoint x="500" y="320" as="sourcePoint" />
            <mxPoint x="550" y="270" as="targetPoint" />
          </mxGeometry>
        </mxCell>
        <mxCell id="18Uwbp1LqqcsZQMBWah2-29" value="Főszakács" style="ellipse;whiteSpace=wrap;html=1;" vertex="1" parent="1">
          <mxGeometry x="770" y="200" width="120" height="80" as="geometry" />
        </mxCell>
        <mxCell id="18Uwbp1LqqcsZQMBWah2-30" value="Fkód" style="rhombus;whiteSpace=wrap;html=1;" vertex="1" parent="1">
          <mxGeometry x="600" y="240" width="80" height="80" as="geometry" />
        </mxCell>
        <mxCell id="18Uwbp1LqqcsZQMBWah2-31" value="Név" style="ellipse;whiteSpace=wrap;html=1;" vertex="1" parent="1">
          <mxGeometry x="680" y="370" width="90" height="60" as="geometry" />
        </mxCell>
        <mxCell id="18Uwbp1LqqcsZQMBWah2-32" value="Cím" style="ellipse;whiteSpace=wrap;html=1;" vertex="1" parent="1">
          <mxGeometry x="785" y="370" width="90" height="60" as="geometry" />
        </mxCell>
        <mxCell id="18Uwbp1LqqcsZQMBWah2-33" value="Csillag" style="ellipse;whiteSpace=wrap;html=1;" vertex="1" parent="1">
          <mxGeometry x="890" y="370" width="90" height="60" as="geometry" />
        </mxCell>
        <mxCell id="18Uwbp1LqqcsZQMBWah2-37" value="" style="endArrow=none;html=1;rounded=0;entryX=0.5;entryY=1;entryDx=0;entryDy=0;exitX=0.5;exitY=0;exitDx=0;exitDy=0;" edge="1" parent="1" source="18Uwbp1LqqcsZQMBWah2-32" target="18Uwbp1LqqcsZQMBWah2-29">
          <mxGeometry width="50" height="50" relative="1" as="geometry">
            <mxPoint x="970" y="320" as="sourcePoint" />
            <mxPoint x="1020" y="270" as="targetPoint" />
          </mxGeometry>
        </mxCell>
        <mxCell id="18Uwbp1LqqcsZQMBWah2-38" value="" style="endArrow=none;html=1;rounded=0;exitX=0.5;exitY=0;exitDx=0;exitDy=0;entryX=0.5;entryY=1;entryDx=0;entryDy=0;" edge="1" parent="1" source="18Uwbp1LqqcsZQMBWah2-31" target="18Uwbp1LqqcsZQMBWah2-29">
          <mxGeometry width="50" height="50" relative="1" as="geometry">
            <mxPoint x="970" y="320" as="sourcePoint" />
            <mxPoint x="1020" y="270" as="targetPoint" />
          </mxGeometry>
        </mxCell>
        <mxCell id="18Uwbp1LqqcsZQMBWah2-39" value="" style="endArrow=none;html=1;rounded=0;entryX=0.5;entryY=1;entryDx=0;entryDy=0;exitX=0.5;exitY=0;exitDx=0;exitDy=0;" edge="1" parent="1" source="18Uwbp1LqqcsZQMBWah2-33" target="18Uwbp1LqqcsZQMBWah2-29">
          <mxGeometry width="50" height="50" relative="1" as="geometry">
            <mxPoint x="970" y="320" as="sourcePoint" />
            <mxPoint x="1020" y="270" as="targetPoint" />
          </mxGeometry>
        </mxCell>
        <mxCell id="18Uwbp1LqqcsZQMBWah2-43" value="" style="endArrow=none;html=1;rounded=0;exitX=1;exitY=0.5;exitDx=0;exitDy=0;entryX=0;entryY=0.5;entryDx=0;entryDy=0;" edge="1" parent="1" source="18Uwbp1LqqcsZQMBWah2-30" target="18Uwbp1LqqcsZQMBWah2-29">
          <mxGeometry width="50" height="50" relative="1" as="geometry">
            <mxPoint x="970" y="320" as="sourcePoint" />
            <mxPoint x="1020" y="270" as="targetPoint" />
          </mxGeometry>
        </mxCell>
      </root>
    </mxGraphModel>
  </diagram>
</mxfile>
